<?xml version="1.0" encoding="UTF-8"?>
<!DOCTYPE svg PUBLIC "-//W3C//DTD SVG 1.1//EN" "http://www.w3.org/Graphics/SVG/1.1/DTD/svg11.dtd">
<!-- Creator: CorelDRAW SE -->
<svg xmlns="http://www.w3.org/2000/svg" xml:space="preserve" width="297mm" height="210mm" version="1.1" style="shape-rendering:geometricPrecision; text-rendering:geometricPrecision; image-rendering:optimizeQuality; fill-rule:evenodd; clip-rule:evenodd"
viewBox="0 0 29700 21000"
 xmlns:xlink="http://www.w3.org/1999/xlink">
 <defs>
  <style type="text/css">
   <![CDATA[
    .fil5 {fill:#71625B}
    .fil0 {fill:#74ACDF}
    .fil4 {fill:#843511}
    .fil3 {fill:#85340A}
    .fil2 {fill:#F6B40E}
    .fil1 {fill:white}
   ]]>
  </style>
 </defs>
 <g id="Warstwa_x0020_1">
  <metadata id="CorelCorpID_0Corel-Layer"/>
  <g id="_1171703240">
   <g>
    <path class="fil0" d="M9772.39 9801.56c2252.19,-55.05 4179.77,715.58 5701.65,2372.29 1546.81,1683.82 3418.81,2504.22 5703.18,2375.08 493.91,-1186.56 988.59,-2374.95 1482.89,-3562.43 494.3,-1187.48 989.37,-2376.79 1484.05,-3565.19 -2253.33,54.58 -4181.74,-716.86 -5703.56,-2374.16 -1546.47,-1684.13 -3418.05,-2502.82 -5701.27,-2373.21 -494.68,1188.4 -989.74,2377.71 -1484.04,3565.19 -494.3,1187.48 -988.98,2375.87 -1482.9,3562.43z"/>
    <path class="fil1" d="M10760.99 7426.61c2262.53,-79.91 4171.77,706.87 5701.65,2372.29 1538.38,1674.65 3429.16,2479.35 5703.17,2375.08 164.77,-395.83 329.54,-791.65 494.3,-1187.48 164.77,-395.83 329.54,-791.65 494.68,-1188.39 -2263.67,79.42 -4173.72,-708.14 -5703.55,-2374.16 -1538.05,-1674.97 -3428.4,-2477.97 -5701.27,-2373.21 -165.15,396.74 -329.91,792.57 -494.68,1188.39 -164.77,395.83 -329.53,791.65 -494.3,1187.48z"/>
    <path class="fil2" d="M16779.63 8047.28c-109.3,-248.54 -219.75,-491.08 -334.8,-722.58 0,0 -9.85,-21.38 -18.62,-13.15 -9.15,5.91 1.44,28.68 1.44,28.68 105.52,238.33 206.06,488.63 305.83,744 -0.77,1.84 -1.91,1.37 -3.06,4.13 -63.24,-114.89 -135.39,-173 -182.6,-303.9 -60.46,-156.92 -144.82,-201.77 -182.37,-249.79 -37.55,-48.03 -32.08,-99.76 -45.4,-99.9 -13.31,-0.15 -12.73,62.73 32.74,136.75 44.69,75.84 91.14,70.34 166.35,259.32 60.82,165.73 118.21,195.01 170.79,313.02 -1.15,2.76 -2.3,5.52 -3.84,9.21 -149.06,-185.17 -302.72,-359.3 -459.82,-525.14 0,0 -14.8,-15.88 -19.78,-3.91 -5.37,12.89 9.44,28.77 9.44,28.77 150.97,180.57 298.87,368.5 441.81,568.4 -0.77,1.84 -1.54,3.68 -2.68,6.44 -78.58,-78.07 -151.99,-91.35 -223.63,-195.69 -89.86,-121.65 -170.95,-116.52 -214.65,-143.35 -43.69,-26.83 -53.81,-82.88 -63.73,-75.13 -11.44,8.2 5.9,69.42 62.85,119.04 56.57,50.55 93.96,18.6 203.92,165.89 90.59,132.76 144.28,125.94 216.35,213.18 -0.39,4.16 -1.17,9.23 -2.32,12 -166.44,-95.2 -334.8,-182.57 -507.38,-259.8 0,0 -16.72,-8.05 -17.53,6.74 -0.42,17.1 15.55,23.75 15.55,23.75 171.38,96.17 338.16,203.4 503.4,317.55 -0.39,4.16 -0.02,6.47 0.36,8.79 -83.27,-28.19 -145.79,6.28 -229.34,-59.83 -103.31,-73.25 -168.93,-21.71 -212.3,-23.57 -43.39,-1.86 -65.7,-54.35 -72.97,-40.09 -6.89,13.33 23.41,69.14 84.25,86.91 59.33,18.21 81.17,-37.49 207.28,54.96 105.97,79.75 148.71,38.14 227.36,83.85 -0.01,3.23 0.74,7.86 1.49,12.49 -157.59,8.92 -315.58,18.76 -476.23,35.05 0,0 -14.85,0.3 -11.86,18.82 3.01,15.29 19,15.47 19,15.47 162.49,5 324.61,14.17 483.66,30.69 0.36,2.31 1.49,6.02 1.49,9.26 -72.37,19.55 -114.83,95.84 -197,81.08 -103.11,-12.68 -143.71,78.43 -178.4,100.7 -35.84,21.81 -66.54,-23.37 -68.12,-3.51 -2.72,19.39 35.6,62.34 88.17,48.58 52.93,-14.68 57.32,-86.3 181.36,-69.23 102.7,20.07 127.26,-51.79 199.96,-52.84 1.5,6.02 2.63,9.73 4.14,15.76 -123.23,106.38 -246.84,213.69 -372,327.92 0,0 -12.97,8.64 -6.16,24.43 6.42,16.72 18.63,6.68 18.63,6.68 131.95,-91.96 263.11,-178.85 394.28,-265.72 0.38,2.31 1.9,5.1 3.03,8.81 -53.87,71.54 -70.92,180.01 -140.3,218.09 -83.85,43.94 -95.24,170.96 -118.96,215.09 -22.58,44.6 -57.14,15.09 -54.53,37.77 2.6,22.69 41.74,44.38 80.68,-0.96 38.97,-48.59 26.24,-127.33 129.17,-184.93 87.29,-48.98 89.83,-141.89 148.97,-193.95 1.13,3.71 3.41,7.9 6.44,10.24 -75.15,199.85 -150.31,399.68 -225.09,601.85 0,0 -7.28,17.48 0.68,30.51 9.09,13.51 16.37,-3.98 16.37,-3.98 85.39,-185.86 170.41,-370.8 256.18,-554.35 1.51,2.8 3.4,4.67 4.92,7.46 -26.96,112.98 -16.66,239.31 -63.71,326.65 -57.4,108.95 -39.13,248.31 -46.93,312.03 -9.31,64.16 -43.54,56.39 -36.37,77.74 6.79,22.27 44.48,18.51 64.49,-58.48 21.14,-76.52 -7.19,-153.11 62.45,-285.05 59.31,-113.56 41.7,-212.69 75.85,-310.8 2.65,3.27 5.31,6.53 7.59,7.48 -15.58,262.45 -31.17,528.12 -44.46,788.28 0,0 -1.58,23.11 9.06,29.69 10.64,6.58 11.86,-18.83 11.86,-18.83 24.66,-248.93 51.25,-502.48 78.98,-755.53 2.29,0.95 4.19,2.81 5.7,2.37 3.81,138.75 40.76,262.13 23.28,387.7 -21.36,150.95 28.92,274.48 37.48,343.92 8.94,68.53 -20.8,88.55 -10.19,104.85 11.75,16.77 41.15,-15.27 38.37,-108.23 -2.03,-91.57 -42.99,-144.26 -19.26,-329.87 21.38,-157.42 -17.19,-244.76 -10,-371.37 2.29,0.95 4.96,0.98 7.24,1.93 48.69,278.4 101.22,550.83 154.89,820.5 0,0 5.25,25.94 14.77,25.59 10.65,0.11 6.54,-25.37 6.54,-25.37 -41.49,-269.99 -82.21,-541.83 -121.79,-816.43 1.91,-1.36 3.8,0.51 5.71,-0.87 35.77,135.87 96.4,231.3 112.77,368.8 20.07,170.36 92.89,262.23 117.84,324.45 26.08,62.7 5.42,102.7 19.48,110.72 12.92,7.53 29.05,-44.07 3.03,-132.66 -25.24,-90.44 -73.51,-115.92 -99.2,-321.02 -21.96,-175.47 -74.31,-236.15 -99.83,-367.73 1.9,-1.36 3.82,-2.73 6.86,-3.62 108.55,247.15 219.01,489.69 335.2,721.66 0,0 9.83,21.37 18.23,14.07 9.15,-5.91 -1.45,-28.68 -1.45,-28.68 -106.27,-239.73 -207.2,-489.1 -305.82,-744 0.38,-0.92 2.29,-2.28 3.06,-4.13 63.23,114.89 135.39,173.01 182.98,302.97 60.46,156.94 144.83,201.78 182.38,249.8 37.54,48.04 31.68,100.68 45.38,99.91 13.33,0.14 12.35,-61.82 -32.72,-136.75 -44.71,-75.85 -91.53,-69.43 -166.37,-259.34 -60.81,-165.71 -118.2,-195.01 -171.15,-312.09 1.14,-2.76 2.29,-5.52 3.83,-9.2 149.44,184.25 302.71,359.29 459.82,525.13 0,0 14.8,15.88 19.78,3.91 5.36,-12.89 -9.43,-28.76 -9.43,-28.76 -150.98,-180.58 -298.51,-369.42 -441.82,-568.41 0.77,-1.83 1.92,-4.59 2.69,-6.44 78.94,77.14 151.98,91.35 224.01,194.77 89.86,121.65 170.94,116.52 214.25,144.27 43.69,26.83 53.82,82.89 64.12,74.21 11.05,-7.28 -5.9,-69.42 -62.85,-119.05 -56.57,-50.54 -93.96,-18.58 -203.92,-165.88 -90.98,-131.83 -144.66,-125.01 -216.74,-212.26 0.4,-4.16 0.79,-8.32 1.94,-11.08 165.68,93.82 334.43,180.25 507.76,258.89 0,0 16.73,8.04 17.53,-6.75 0.43,-17.1 -15.15,-24.67 -15.15,-24.67 -172.53,-96.65 -339.31,-203.88 -503.8,-316.63 0.4,-4.15 0.02,-6.47 -0.36,-8.79 83.27,28.19 145.8,-6.27 229.73,58.9 102.93,74.18 168.54,22.64 212.31,23.59 43.38,1.85 65.31,55.26 72.58,41.01 7.27,-14.26 -23.41,-69.15 -84.26,-86.92 -58.93,-19.13 -80.79,36.58 -207.26,-54.96 -105.98,-79.75 -148.72,-38.14 -227.37,-83.84 0,-3.24 -0.36,-8.79 -1.5,-12.5 157.6,-8.92 315.96,-19.69 476.24,-35.05 0,0 14.84,-0.3 11.85,-18.82 -2.62,-16.22 -18.99,-15.47 -18.99,-15.47 -163.25,-6.4 -325.37,-15.55 -483.65,-30.68 0,-3.24 -1.13,-6.95 -1.5,-9.27 72.75,-20.47 114.82,-95.84 197.38,-81.99 102.34,14.51 143.7,-78.43 178.4,-100.71 35.46,-20.88 66.16,24.3 68.12,3.51 2.33,-18.46 -35.99,-61.42 -88.93,-46.73 -52.56,13.75 -56.95,85.38 -180.98,68.3 -102.71,-20.07 -127.26,51.79 -199.58,51.93 -1.89,-5.11 -2.64,-9.74 -4.91,-13.93 122.86,-108.7 246.47,-216 372.4,-328.84 0,0 12.95,-8.64 6.53,-25.35 -7.18,-14.88 -19.02,-5.76 -19.02,-5.76 -133.08,91.49 -263.87,177.45 -393.9,264.81 -0.75,-1.4 -1.89,-5.11 -3.41,-7.9 53.87,-71.54 70.93,-180.01 139.92,-217.17 84.62,-45.77 96.01,-172.8 119.35,-216.01 23.35,-46.43 57.13,-15.09 54.91,-38.7 -2.98,-21.75 -41.74,-44.38 -81.07,1.89 -38.19,46.76 -26.24,127.33 -128.77,184.01 -87.3,48.98 -89.85,141.88 -148.6,193.03 -1.9,-1.87 -4.17,-6.05 -6.44,-10.24 74.4,-201.24 149.55,-401.07 224.71,-600.92 0,0 7.28,-17.49 -0.67,-30.52 -9.1,-13.5 -16.38,3.98 -16.38,3.98 -85.77,183.55 -170.78,368.49 -255.8,553.42 -1.9,-1.86 -3.79,-3.74 -5.69,-5.61 27.34,-113.9 16.66,-239.31 64.1,-327.56 57.4,-108.96 39.14,-248.32 46.92,-312.04 8.93,-63.24 43.17,-55.47 36,-76.82 -6.41,-23.19 -44.1,-19.43 -64.49,58.48 -21.15,76.52 7.19,153.11 -62.46,285.05 -59.31,113.56 -40.93,210.85 -75.45,309.88 -2.66,-3.27 -5.32,-6.54 -7.6,-7.49 14.43,-262.91 29.64,-527.66 44.07,-787.35 0,0 1.59,-23.1 -8.66,-30.61 -10.65,-6.59 -12.24,19.75 -12.24,19.75 -25.43,247.54 -52.03,501.08 -79,755.53 -1.9,-1.86 -4.56,-1.9 -5.7,-2.37 -3.41,-139.66 -40.76,-262.13 -23.65,-386.77 21.73,-151.88 -28.16,-276.33 -37.11,-344.85 -8.94,-68.53 20.81,-88.55 10.58,-105.77 -12.13,-15.85 -41.53,16.19 -38.75,109.16 2.03,91.56 42.99,144.26 19.25,329.86 -21.37,157.43 17.21,244.77 10,371.37 -2.28,-0.95 -4.94,-0.98 -7.22,-1.92 -49.84,-278.88 -101.99,-552.23 -154.89,-820.5 0,0 -4.88,-26.87 -14.79,-25.59 -10.65,-0.12 -6.53,25.36 -6.53,25.36 41.87,269.07 82.22,541.83 121.41,817.35 -1.14,-0.48 -3.42,-1.43 -5.33,-0.06 -35.4,-136.77 -96.41,-231.29 -112.39,-369.7 -20.45,-169.45 -92.89,-262.24 -117.84,-324.46 -26.47,-61.78 -5.8,-101.78 -19.86,-109.8 -12.54,-8.46 -29.05,44.07 -3.03,132.66 26.01,88.59 73.5,115.92 99.2,321.03 21.95,175.46 74.31,236.14 99.83,367.72 -1.91,1.36 -4.96,2.26 -6.87,3.62z"/>
    <path id="ray2" class="fil3" d="M17235.9 9027.78c44.45,-106.77 52.83,-245.85 30.02,-390.35 -20.91,-145.86 -71.5,-294.37 -147.67,-410.31 -76.94,-117.35 -163.54,-179.32 -242.69,-185.26 -80.67,-5.51 -151.99,46.89 -196.44,153.67 -44.45,106.77 -53.21,246.78 -30.4,391.27 20.9,145.86 71.87,293.44 148.81,410.79 76.17,115.96 162.4,178.84 241.17,185.71 81.05,4.58 152.75,-48.73 197.2,-155.52zm-89.51 160.39c106.65,242.04 215.22,479.48 328.39,705.87 0,0 0,0 0,0 0,0 6.82,12.56 9.1,10.27 3.06,-4.13 -2.99,-15.29 -2.99,-15.29 -104.01,-235.53 -203.43,-478.89 -299.78,-729.6 -4.2,3.65 -7.26,7.78 -10.69,9.59 44.21,115.61 89.55,231.69 135.29,346.85 -49.93,-111.51 -99.47,-223.93 -148.26,-334.97 -3.81,2.74 -7.24,4.55 -11.06,7.28zm57.1 -5.39c92.96,239.58 188.98,471.79 289.22,697.13 0.75,1.38 13.61,31.58 0.63,43.46 -12.59,10.96 -26.97,-15.55 -28.86,-20.66 -112.79,-224.07 -219.85,-458.72 -324.98,-697.97 10.53,42.19 22.99,76.54 36.22,112.29 22.28,62.18 46.07,127.18 58.34,232.72 17.13,132.42 43.24,188.64 65.94,236.97 12.49,24.65 24.23,47.89 33.65,79.89 13.95,46.85 16.89,84.79 13.78,108.35 -0.79,11.54 -3.1,20.3 -5.4,25.83 -3.06,7.36 -7.26,11.01 -10.31,11.91 -3.04,0.89 -5.71,0.86 -8.75,-1.49 -11.78,-7.06 -11.74,-20.01 -10.93,-38.03 -0.33,-18.5 0.13,-45.31 -13.1,-77.81 -6.42,-16.72 -16.65,-33.94 -28.01,-54.87 -32.94,-62.31 -75.72,-146 -90.97,-273.3 -9.66,-82.87 -36.5,-150.2 -63.32,-220.77 -12.09,-32.03 -23.81,-61.75 -34.36,-97.47 36.2,257 74.3,512.63 113.56,765.5 0,0 7.51,36.6 -9.61,35.95 -16.76,1.67 -23.12,-34.46 -23.12,-34.46 -51.79,-261.33 -102.82,-524.49 -150.79,-795.03 -0.12,42.08 3.58,81.42 8.04,118.91 7.43,65.74 15.61,136.1 3.55,229.37 -16.32,119.57 -3.93,183.05 6.95,237.26 6.39,29.65 11.64,58.84 11.93,90.29 1.38,48.09 -5.94,81.76 -15.12,100.62 -3.45,8.28 -8.03,12.86 -12.24,16.51 -4.19,3.65 -8.76,5 -12.94,2.17 -2.66,-0.02 -5.32,-3.29 -7.98,-6.56 -10.23,-13.98 -6.02,-24.1 -1.03,-39.31 4.99,-15.2 12.66,-36.85 7.82,-73.43 -2.23,-17.13 -7.5,-39.84 -13.14,-64.87 -17.68,-73.24 -40.25,-170.12 -24.32,-285.53 10.48,-73.4 0.42,-148.87 -8.88,-226.18 -4.47,-34.26 -8.56,-69.44 -11.88,-106.47 -25.79,238.75 -50.82,475.67 -73.93,711.2 -0.39,4.16 -4.27,32.79 -20.23,22.91 -15.96,-9.89 -14.35,-42.7 -14.71,-45.02 14.01,-252.28 29.19,-507.33 43.99,-761.45 -9.61,32.72 -13.89,65.49 -18.93,100.11 -7.78,60.49 -15.95,121.89 -50.77,189.48 -45.54,86.88 -48.38,148.34 -51.95,201.95 -1.22,28.65 -2.81,54.98 -10.13,82.17 -10.77,41.97 -26.05,62.6 -40.16,70.77 -5.72,4.1 -11.43,4.96 -15.23,4.46 -5.33,-0.06 -10.65,-3.36 -14.06,-8.02 -3.04,-2.33 -4.93,-7.44 -6.82,-12.55 -6.04,-17.63 0.06,-22.66 9.6,-32.72 8.41,-7.3 20.23,-19.67 25.28,-54.29 2.33,-15.22 2.39,-37.88 2.08,-62.85 2.11,-72.57 2.76,-170.57 46.37,-252.86 27.93,-51.01 34.59,-118.45 42.4,-188.64 3.51,-30.94 7.02,-61.88 12.06,-93.26 -80.41,173.89 -160.82,347.78 -240.85,520.76 0,0 -10.73,25.77 -25.13,2.5 -13.64,-21.89 -3.29,-46.74 -3.29,-46.74 71.71,-194.79 144.19,-388.19 216.66,-581.58 -17.18,18.76 -28.67,43.14 -41.3,67.05 -21.81,42.77 -44,86.44 -96.61,116.38 -66.33,37.2 -83.2,84.17 -98.55,124.23 -7.66,21.65 -14.95,42.38 -29.85,58.86 -19.85,25.21 -41.19,31.45 -57.17,28.04 -6.47,-0.53 -12.16,-2.91 -17.1,-7.12 -6.08,-4.69 -10.25,-10.75 -12.89,-17.25 -2.28,-4.18 -3.41,-7.89 -3.77,-13.45 -2.61,-19.44 4.63,-20.75 16.43,-20.16 11.03,-0.8 27.01,-0.63 38.51,-25.01 6.11,-11.5 11.87,-28.54 17.64,-48.81 17.28,-57.61 40.33,-135.5 104.38,-170.41 40.78,-20.82 62.99,-70.98 86.74,-121.57 10.33,-21.62 21.05,-44.16 32.53,-65.3 -122.41,81.89 -244.81,163.78 -368.74,249.35 -1.53,0.45 -18.31,11.83 -28.52,-11.87 -9.83,-24.6 4.31,-39.25 6.21,-40.61 121.72,-109.18 241.9,-214.67 361.33,-318.33 -22.47,2.53 -41.15,12.03 -59.45,23.86 -31.64,18.15 -65.56,35.35 -127.58,26.82 -80.65,-11.98 -108.89,14.07 -134.83,37.83 -13.36,12.8 -26.34,24.68 -45.38,28.64 -27.42,8.02 -52.14,-0.1 -68.47,-12.31 -7.22,-5.16 -12.92,-10.77 -17.47,-15.9 -4.93,-7.46 -9.09,-13.51 -11.36,-20.94 -0.36,-5.55 -1.49,-9.26 -0.72,-14.33 1.58,-16.63 10.31,-11.91 23.61,-5.3 11.03,5.67 28.89,14.18 47.57,4.68 9.15,-5.91 19.08,-16.9 30.15,-30.65 30.54,-34.81 73.3,-82.89 150.16,-71.41 50.21,7.93 84.54,-16.66 121.53,-41.22 15.63,-11.86 32.03,-22.31 48.8,-30.45 -150.68,-14.12 -301.75,-24.08 -454.74,-29.44 0,0 -22.08,1.6 -26.95,-25.26 -5.63,-28.26 16.06,-28.96 17.21,-28.48 154.94,-15.42 308.36,-27.17 460.63,-36.14 -25.85,-11.84 -47.16,-15.32 -69.23,-16.95 -39.56,-4.58 -80.27,-9.65 -144.08,-58.89 -80.9,-59.59 -118.6,-55.84 -150.95,-52.04 -17.14,2.6 -34.28,5.18 -55.18,-2.44 -31.19,-8.66 -55.5,-27.42 -71.43,-47.02 -6.06,-7.91 -10.61,-16.29 -14.39,-23.26 -3.41,-7.9 -5.67,-15.32 -6.41,-23.19 0.39,-4.16 0.4,-7.39 1.93,-11.08 6.51,-12.41 14.1,-4.93 26.24,7.69 11.39,11.21 28.09,28.97 50.54,29.67 11.8,0.59 23.98,-2.97 39.22,-7.43 41.9,-10.65 99.4,-23.43 176.51,32.43 49.38,38.92 92.75,40.77 136.89,44.02 19.41,1.6 39.58,1.35 60.12,6.66 -154.99,-106.62 -312.27,-207.74 -473.02,-297.34 -3.41,-1.42 -23.56,-14.13 -21.59,-38.14 1.59,-23.1 23.26,-14.08 24.4,-13.6 166.88,74.86 331.06,159.4 492.57,250.39 -23.15,-24.76 -45.56,-41.65 -68.35,-57.61 -39.5,-30.48 -80.52,-60.52 -134.73,-139.24 -70.9,-96.48 -111.19,-115.41 -146.16,-131.05 -19.39,-8.07 -36.5,-15.19 -57,-33.44 -30.38,-26.69 -49.7,-57.41 -60.3,-80.18 -4.91,-10.69 -7.93,-19.51 -9.81,-27.85 -1.49,-9.26 -1.47,-15.74 -0.32,-21.74 1.15,-2.76 2.68,-6.44 4.98,-8.72 9.52,-6.84 15.96,3.4 25.81,21.54 8.71,14.43 21.2,39.07 44.76,53.2 10.64,6.58 24.71,11.37 41.06,17.09 46.77,16.23 108.75,37.71 176.24,129.52 42.84,61.03 86.52,91.1 132.11,123.03 20.14,12.7 39.51,27.24 60.39,44.58 -134.59,-187.78 -274.16,-363.61 -415.66,-531.58 0,0 -21.25,-22.89 -11.68,-42.67 8.44,-20.25 28.93,1.24 28.93,1.24 151.41,160.23 300.14,326.9 444.27,507.86 -17.03,-36.25 -35.99,-64.66 -54.94,-93.07 -34.11,-49.84 -68.98,-101.08 -105.62,-199.49 -48.76,-123.97 -84.8,-162.74 -116.68,-195.46 -16.7,-17.75 -32.64,-34.1 -49.31,-61.56 -23.48,-40.02 -35.18,-76.21 -40.05,-103.07 -2.26,-10.67 -2.24,-20.37 -1.84,-27.77 0.41,-7.39 2.34,-15.23 5.01,-18.44 2.29,-2.28 5.34,-3.17 8,-3.15 11.42,-1.72 15.19,11.73 19.33,30.73 4.5,18.08 11.28,46.82 31.76,71.54 9.48,12.59 22.01,24.28 37.58,38.33 43.27,40.69 101.72,96.35 146.31,214.27 27.95,77.51 65.86,131.09 104.91,185.15 17.82,24.7 36.02,48.48 52.69,75.93 -94.09,-240.05 -189.73,-473.19 -289.21,-697.11 -0.38,-2.33 -13.62,-31.59 -0.26,-44.39 12.2,-10.04 26.6,16.47 28.49,21.57 111.65,223.6 219.09,457.33 325.37,697.06 -10.54,-42.19 -23.39,-75.63 -36.23,-112.29 -22.66,-61.27 -46.46,-126.26 -58.72,-231.81 -16.76,-133.33 -43.25,-188.64 -65.95,-236.97 -12.11,-25.56 -24.22,-47.89 -33.65,-79.89 -13.56,-47.77 -16.5,-85.71 -13.39,-109.26 0.79,-11.55 2.72,-19.39 5.02,-24.91 3.06,-7.37 7.26,-11.02 10.69,-12.83 3.05,-0.9 5.33,0.05 8.75,1.48 11.77,7.06 11.74,20.01 10.93,38.03 -0.05,19.42 -0.13,45.31 12.71,78.74 6.82,15.79 17.04,33.01 28.41,53.94 32.55,63.23 75.7,145.99 90.58,274.23 9.65,82.86 36.49,150.19 63.32,220.76 12.47,31.11 23.8,61.75 34.74,96.55 -37.72,-256.55 -75.45,-513.1 -113.94,-764.57 0,0 -7.13,-37.53 10.38,-37.8 15.98,0.17 22.74,35.39 22.35,36.3 51.41,262.25 102.44,525.41 151.16,794.1 -0.26,-41.15 -3.96,-80.49 -8.8,-117.06 -7.05,-66.66 -14.84,-137.95 -3.16,-230.29 16.31,-119.56 3.94,-183.04 -6.96,-237.25 -6,-30.58 -12.01,-57.93 -11.53,-91.21 -1.4,-48.1 5.54,-80.85 15.12,-100.62 3.06,-7.37 8.03,-12.87 11.84,-15.6 4.19,-3.65 8.77,-4.98 12.95,-2.17 2.66,0.03 5.69,2.37 8.35,5.64 10.24,13.98 6.02,24.11 0.65,40.23 -4.98,15.2 -12.28,35.93 -7.43,72.51 1.85,18.05 6.74,41.68 13.13,64.87 16.92,75.08 39.87,171.04 23.94,286.45 -10.86,74.32 -0.41,148.87 8.88,226.18 4.48,34.26 8.57,69.44 11.89,106.47 25.03,-240.15 49.67,-476.13 74.3,-712.13 0.02,-3.23 3.9,-31.86 19.85,-21.98 15.96,9.89 14.35,42.7 14.73,45.02 -14.42,253.2 -29.2,507.34 -44,761.46 9.99,-33.64 14.27,-66.42 19.32,-101.04 7.39,-59.56 15.94,-121.89 50.77,-189.47 45.14,-85.97 48.36,-148.36 51.94,-201.95 1.22,-28.65 2.44,-54.06 10.12,-82.19 10.39,-41.04 26.06,-62.59 39.78,-69.84 6.11,-5.02 11.05,-4.04 16.01,-6.3 4.56,1.9 9.88,5.2 13.68,8.94 2.65,3.25 4.92,7.45 6.42,13.47 6.05,17.64 0.32,21.73 -8.84,30.88 -9.15,9.15 -20.99,21.51 -25.65,55.21 -2.32,15.23 -2.39,37.88 -2.46,63.78 -1.72,71.64 -2.38,169.65 -46,251.94 -28.31,51.92 -34.97,119.36 -42.39,188.63 -3.52,30.94 -7.03,61.88 -12.07,93.27 80.03,-172.98 160.45,-346.87 240.86,-520.76 0,0 10.73,-25.78 25.14,-2.51 14.02,20.96 3.29,46.74 3.29,46.74 -72.86,194.32 -145.34,387.71 -217.05,582.51 17.55,-19.7 29.04,-44.07 41.67,-67.98 21.82,-42.76 44.01,-86.44 96.62,-116.39 65.95,-36.27 83.21,-84.16 98.16,-123.3 8.05,-22.57 15.34,-43.29 29.85,-58.86 20.25,-26.12 41.57,-32.37 57.55,-28.96 6.09,1.45 11.79,3.83 16.73,8.04 6.08,4.7 10.62,9.83 13.27,16.33 2.27,4.19 3.02,8.81 3.77,13.44 2.22,20.37 -5.01,21.69 -16.42,20.17 -11.42,1.73 -27.41,1.56 -38.89,25.94 -6.13,11.49 -11.88,28.53 -17.26,47.89 -17.68,58.52 -40.74,136.42 -104.39,170.39 -40.78,20.83 -63.38,71.91 -86.74,121.59 -10.72,22.53 -21.05,44.15 -32.91,66.21 122.02,-80.97 244.8,-163.78 368.74,-249.35 1.52,-0.45 18.3,-11.83 28.13,12.78 10.21,23.69 -3.91,38.34 -5.82,39.7 -121.72,109.18 -242.29,215.6 -361.32,318.33 22.84,-3.45 41.52,-12.96 59.44,-23.86 32.02,-19.07 65.94,-36.27 127.19,-25.9 81.04,11.05 109.28,-14.99 135.23,-38.74 13.35,-12.81 26.32,-24.69 45.36,-28.64 27.82,-8.95 52.53,-0.82 68.86,11.38 7.22,5.17 12.53,11.69 17.08,16.83 4.93,7.45 9.1,13.51 10.98,21.85 1.13,3.71 1.88,8.34 1.11,13.42 -1.19,15.71 -10.31,11.91 -23.62,5.29 -11.02,-5.66 -28.89,-14.18 -47.56,-4.68 -9.15,5.92 -19.08,16.91 -29.78,29.73 -30.92,35.73 -73.68,83.81 -150.54,72.34 -50.21,-7.94 -84.54,16.65 -121.52,41.22 -15.64,11.85 -32.03,22.3 -48.8,30.44 149.54,13.64 300.99,22.69 455.12,28.53 0,0 21.69,-0.69 26.95,25.26 5.25,29.18 -16.07,28.95 -17.58,29.4 -154.96,15.41 -308.37,27.16 -460.25,35.22 25.46,12.76 46.76,16.23 68.83,17.86 39.58,4.59 80.29,9.65 144.08,58.89 80.91,59.6 118.6,55.84 151.34,51.11 16.76,-1.67 33.89,-4.25 55.19,2.46 31.18,8.66 55.11,28.33 71.03,47.93 6.45,7 11,15.37 14.4,23.27 3.78,6.98 5.67,15.32 6.4,23.19 -0.38,4.15 -0.4,7.39 -1.93,11.07 -6.5,12.41 -13.71,4.01 -26.23,-7.68 -11.39,-11.22 -28.09,-28.98 -50.55,-29.68 -11.79,-0.58 -23.98,2.97 -38.83,6.52 -42.28,11.56 -99.79,24.34 -176.9,-31.52 -49.36,-38.91 -92.75,-40.77 -136.89,-44.02 -19.79,-0.68 -39.2,-2.28 -60.5,-5.74 154.61,104.32 311.9,205.43 473.4,296.42 3.42,1.42 23.56,14.13 21.97,37.22 -1.96,24.03 -23.26,14.08 -24.78,14.53 -167.63,-76.26 -331.81,-160.8 -492.56,-250.4 23.53,23.84 45.56,41.65 68.35,57.61 39.5,30.48 80.52,60.53 134.72,139.25 70.91,96.48 111.2,115.41 146.55,130.12 19.01,9 36.5,15.19 56.62,34.37 30.37,26.68 50.08,56.48 60.29,80.17 4.92,10.69 7.94,19.51 9.82,27.86 1.5,9.25 1.47,15.73 0.31,21.73 -1.15,2.76 -2.68,6.44 -4.96,8.73 -9.54,6.83 -15.98,-3.41 -25.83,-21.55 -8.33,-15.35 -21.2,-39.07 -44.38,-54.11 -10.63,-6.6 -24.7,-11.37 -41.06,-17.09 -46.76,-16.23 -108.75,-37.71 -176.61,-128.61 -42.46,-61.95 -86.53,-91.1 -131.73,-123.95 -20.13,-12.7 -39.88,-26.32 -60.78,-43.66 133.46,187.31 273.41,362.21 415.67,531.59 0,0 21.24,22.89 11.68,42.66 -8.43,20.26 -28.93,-1.24 -28.93,-1.24 -152.17,-161.62 -300.9,-328.29 -444.26,-507.86 17.02,36.25 36.35,63.74 55.3,92.15 33.73,50.76 68.61,102 105.64,199.5 48.36,124.9 84.8,162.73 116.68,195.45 16.69,17.74 32.25,35.02 48.92,62.49 23.48,40.01 35.56,75.28 40.05,103.07 2.65,9.74 2.61,19.45 1.83,27.76 -0.4,7.39 -1.94,14.31 -5,18.44 -1.9,1.36 -5.33,3.18 -8,3.15 -11.05,0.81 -15.19,-11.73 -19.32,-30.73 -4.14,-19 -11.3,-46.82 -31.78,-71.54 -9.1,-13.52 -21.62,-25.21 -37.57,-38.32 -42.89,-41.62 -101.73,-96.36 -146.31,-214.27 -27.95,-77.52 -65.86,-131.1 -104.53,-186.07 -18.2,-23.78 -36.02,-48.48 -53.08,-75.02zm-119.2 29.22c12.8,46.38 27.91,87.22 43.41,127.15 27.58,71.97 55.93,142.09 65.58,228.19 14.5,122.68 56.14,202.65 87.58,262.17 12.1,22.33 21.95,40.47 29.52,57.66 16.64,40.4 16.16,70.45 15.35,91.71 -0.4,7.39 -1.18,12.47 -0.42,13.86 0,0 0,0 0,0 1.9,-1.36 2.67,-3.2 4.2,-6.88 1.92,-4.61 2.7,-9.68 3.87,-18.92 1.95,-20.78 -0.61,-53.18 -12.3,-95.83 -8.29,-28.3 -18.88,-51.07 -31.76,-74.79 -23.08,-50.65 -51.08,-108.74 -68.95,-249.02 -11.91,-100.01 -34.94,-163.59 -56.85,-223.48 -14.35,-39.45 -27.95,-77.51 -38.1,-123.85 -4.19,0.41 -8,3.14 -12.18,3.56 34.96,153.88 96.73,246.56 93.38,360.71 -13.7,-140.69 -70.18,-220.37 -108.63,-356.26 -4.56,1.34 -9.52,3.6 -13.7,4.02zm210.94 -442.48c82.52,26.79 136.67,-10.07 221.35,59.73 -67.14,-79.79 -129.28,-43.02 -222.03,-87.01 -0.36,-8.8 -1.1,-16.67 -2.22,-23.61 28.51,15.1 52.86,17.68 77.21,20.25 38.04,5.04 77.23,10.56 138.38,56.53 85.08,62.41 124.29,58.22 158.56,53.04 16.75,-1.67 31.23,-4.28 51.38,1.95 28.52,8.63 49.79,25.04 62.68,42.29 4.55,5.13 8.34,12.11 11.75,16.77 1.13,3.71 2.26,7.42 2.64,9.74 0,0 0,0 0,0 -0.38,0.92 -3.79,-3.74 -8.35,-8.87 -13.28,-13.09 -33.02,-33.19 -59.27,-34.4 -12.95,-1.07 -26.66,2.95 -41.9,7.41 -40.36,10.19 -95.21,23 -168.14,-30.04 -52.41,-41.25 -96.93,-43.58 -142.6,-46.4 -25.87,-2.12 -50.99,-2.87 -78.75,-10.1 0.41,-10.63 -0.33,-18.5 -0.69,-27.28zm-9.95 -114.31c70.41,-2.01 142.37,-7.7 213.93,-12.46 -73.44,-3.58 -146.13,-8.99 -217.66,-17.17 -1.12,-6.94 -3,-15.29 -4.5,-24.55 155.63,15.09 313.93,23.75 474.92,29.2 0,0 9.13,0.56 9.87,5.19 1.51,6.03 -7.24,7.78 -7.24,7.78 -157.24,14.48 -312.55,24.34 -465.96,32.85 -1.5,-6.03 -1.86,-14.81 -3.36,-20.84zm-20.6 -117.65c70.85,-22.35 105.31,-95.49 190.5,-75.15 -74.1,-40.56 -114.28,36.68 -198.42,45.93 -1.88,-8.34 -4.14,-15.77 -6.4,-23.19 26.64,-2.95 45.7,-13.37 65.91,-26.56 31.27,-17.23 64.05,-34.91 123.01,-25.48 84.85,11.56 114.98,-15.85 141.71,-41.46 12.97,-11.88 25.56,-22.84 41.94,-26.82 25.51,-6.66 46.81,0.05 61.24,10.37 5.32,3.3 9.87,8.43 12.53,11.7 2.27,4.19 4.17,6.06 4.54,8.37 0,0 0,0 0.76,1.4 0,0 -4.18,-2.82 -9.5,-6.12 -12.91,-7.53 -33.82,-18.4 -55.94,-3.84 -10.67,6.35 -20.59,17.34 -31.67,31.09 -30.17,33.89 -70.63,79.69 -143.68,68.72 -52.5,-8.9 -88.73,17.07 -126.1,42.55 -20.6,14.11 -41.18,28.22 -65.18,34.43 -1.88,-8.34 -3.76,-16.69 -5.25,-25.94zm-34.32 -116.9c54.95,-48.41 111.03,-96.34 167.49,-145.2 -59.48,40.04 -118.58,79.17 -176.93,119.67 -3.02,-8.81 -5.28,-16.23 -9.07,-23.21 127.74,-85.07 255.87,-171.06 385.91,-261.65 0,0 7.63,-5.47 9.12,0.56 3.03,5.58 -4.21,10.12 -4.21,10.12 -0.38,0.92 -0.38,0.92 -0.38,0.92 -123.24,109.63 -244.57,214.64 -364.75,320.14 -2.65,-6.49 -4.53,-14.84 -7.18,-21.35zm-42.7 -106.33c52.34,-74.34 63.28,-174.55 135.68,-207.05 -67.74,2.04 -83.65,110.99 -148.55,180.09 -3.03,-5.58 -6.82,-12.55 -9.85,-18.14 19.85,-21.97 33.25,-47.72 47.03,-74.38 21.04,-40.93 42.48,-82.77 92.42,-112.74 69.37,-38.08 87.02,-86.9 103.13,-128.79 7.66,-21.65 14.18,-40.54 27.17,-55.66 18.71,-22.45 36.99,-27.79 50.69,-25.33 5.33,0.05 9.5,2.87 13.69,5.7 1.9,1.86 3.79,3.73 5.31,6.52 0,0 0,0 0,0 -0.38,0.92 -3.42,-1.43 -7.99,-0.08 -12.94,-1.07 -31.22,1.04 -45.76,29.55 -6.5,12.41 -12.65,30.38 -18.8,51.57 -16.52,55.78 -38.42,130.9 -98.26,162.15 -43.84,24.95 -67.19,74.63 -91.33,126.15 -13.39,28.98 -27.18,58.89 -43.99,83.21 -3.79,-6.98 -7.19,-14.88 -10.59,-22.77zm-53.77 -99.06c33.36,-89.8 67.49,-181.44 102.38,-271.68 -39.06,84.18 -77.74,167.45 -115.65,252.11 -4.17,-6.05 -8.34,-12.11 -12.51,-18.17 83.09,-180.33 166.96,-362.51 251.19,-542.38 0,0 4.21,-10.11 7.25,-4.54 2.65,3.27 -1.57,13.4 -1.57,13.4 -73.62,196.16 -147.62,393.23 -220.11,589.87 -4.16,-6.06 -7.2,-11.65 -10.98,-18.61zm-58.02 -79.23c25.06,-114.86 11.68,-227.35 61.41,-314.66 -53.44,51.21 -41.23,176.17 -77.72,295.99 -3.79,-3.75 -8.73,-7.96 -12.53,-11.7 11.52,-37.33 16.2,-74.27 21.25,-112.12 7.39,-56.33 15.93,-118.65 49.61,-183.48 46.69,-89.64 50.29,-152.94 53.87,-209.77 0.45,-26.82 2.06,-53.15 9.35,-77.11 10,-36.88 23,-55.23 34.43,-63.43 4.95,-2.26 8.38,-4.07 11.81,-2.65 2.66,0.03 4.94,0.98 5.7,2.38 0,0 0,0 0.76,1.39 0,0 -3.05,0.89 -7.24,4.54 -9.55,10.07 -24.43,23.32 -29.49,64.42 -2.71,16.15 -3.16,39.72 -3.61,66.53 -0.96,69.8 -1.22,163.66 -42.54,240.42 -29.84,55.62 -37.65,125.82 -45.08,198.32 -3.92,38.32 -8.6,78.5 -16.7,117.25 -4.55,-5.13 -9.1,-10.27 -13.28,-16.32zm-65.66 -64.05c6.8,-119.23 13.6,-238.44 21.55,-357.17 -13.26,115.45 -25.39,231.36 -36.74,345.44 -4.94,-4.21 -9.5,-6.11 -13.68,-8.93 26.59,-250.31 52.02,-497.85 77.82,-743.07 0,0 0,0 0.38,-0.92 0,0 0.42,-13.87 4.22,-10.13 3.42,1.42 2.62,16.21 2.62,16.21 -13.27,253.68 -28.45,511.97 -43.25,769.34 -3.81,-3.74 -8.74,-7.96 -12.92,-10.77zm266.18 903.53c79.71,75.3 143.27,80.15 215.27,190.05 -51.08,-108.75 -123.75,-117.39 -209.88,-212.65 1.93,-7.84 3.08,-13.83 3.1,-20.31 26.56,29.42 51.26,47.25 75.94,65.09 38.36,30.01 78.24,59.57 130.17,134.11 74.32,101.14 116.13,119.63 153.01,137.13 17.1,7.12 34.21,14.24 52.81,30.63 26.19,23.86 44.39,50.87 53.47,70.86 3.4,7.89 6.05,14.39 7.17,21.34 1.13,3.71 1.12,6.95 0.36,8.78 0,0 0,0 0,0 -0.39,0.93 -1.9,-5.1 -6.06,-11.15 -9.85,-18.14 -24.99,-46.05 -52.73,-62.99 -12.54,-8.46 -26.61,-13.24 -44.1,-19.44 -44.48,-15.28 -104.56,-34.88 -167.87,-123.88 -45.5,-64.3 -90.32,-94.84 -137.43,-126.33 -25.83,-18.31 -51.66,-36.63 -79,-60.96 2.68,-6.44 4.23,-13.36 5.77,-20.28zm16.26 -100.15c74.87,41.96 150.48,85.32 226.49,127.76 -75.22,-50.76 -150.43,-101.51 -224.51,-151.79 0.4,-7.39 0.8,-14.77 1.2,-22.17 161.44,110.4 325.19,215.28 493.54,309.12 0,0 0,0 0,0 0,0 9.5,6.11 9.1,10.27 -0.02,6.47 -9.89,1.28 -10.27,2.2 -169.92,-77.21 -335.24,-162.23 -497.5,-254.61 0.4,-7.39 1.55,-13.39 1.95,-20.78zm-51.55 197.78c145.26,181.43 296.65,351.37 450.72,514.86 0,0 8.73,7.96 10.27,4.27 1.53,-3.67 -6.82,-12.55 -6.82,-12.55 -148.32,-177.31 -293.58,-361.97 -433.1,-557.21 -1.54,6.93 -3.83,12.45 -6.13,17.97 64.06,90.39 128.52,179.86 195.26,267.04 -69.42,-80.74 -136.56,-163.76 -203.31,-247.71 -2.3,5.52 -4.21,10.13 -6.89,13.33zm-45.1 69.79c21.58,38.15 44.71,69.37 67.08,99.21 40.19,57.77 79.24,111.81 109.46,193.52 43.08,111.89 98.88,164.29 139.87,204.02 16.32,15.44 29.99,27.61 40.61,40.67 24.27,31.7 31.42,62.76 37.07,84.55 1.88,8.34 2.62,12.97 2.62,12.97 0,0 0,0 0,0 1.52,-0.44 1.54,-3.68 2.31,-8.75 0.39,-4.16 -0.35,-12.03 -2.23,-20.37 -3.74,-23.16 -14.3,-55.64 -35.9,-90.55 -13.63,-25.11 -28.44,-41 -45.51,-57.82 -32.26,-35.03 -70.59,-74.75 -120.84,-204.74 -35.89,-93.79 -69.26,-142.24 -102.23,-191.6 -20.47,-31.2 -41.32,-61.48 -61.37,-103.31 -3.05,4.13 -5.35,9.65 -8.41,13.78 65.85,134.33 137.63,190.13 164.7,308.32 -47.2,-134.13 -112.54,-179.69 -176.16,-293.65 -3.44,5.04 -6.88,10.09 -11.07,13.75zm-356.86 -55.66c-25.06,114.85 -11.67,227.34 -61.77,315.57 53.81,-52.12 41.6,-177.09 78.09,-296.9 3.8,3.74 8.34,8.87 12.53,11.7 -11.53,37.31 -16.2,74.25 -21.25,112.11 -7.78,57.25 -15.94,118.65 -49.62,183.47 -46.67,89.66 -50.66,153.88 -53.86,209.79 -0.84,27.73 -2.05,53.14 -9.74,78.03 -9.61,35.96 -22.99,55.23 -34.43,63.43 -4.57,1.34 -8,3.15 -11.81,2.64 -2.28,-0.94 -4.56,-1.89 -5.7,-2.37 -0.76,-1.4 -0.76,-1.4 -0.76,-1.4 0,0 3.43,-1.81 7.25,-4.54 9.16,-9.15 24.42,-23.32 29.48,-64.41 3.1,-17.07 3.55,-40.65 3.62,-66.54 0.96,-69.8 1.6,-164.58 42.92,-241.33 29.84,-55.63 37.27,-124.89 45.09,-198.33 3.91,-38.33 8.59,-78.5 16.69,-117.25 4.17,6.06 9.1,10.27 13.27,16.33zm129.88 105.9c6.07,139.69 42.32,245.5 22.56,370.12 31.07,-90.74 -8.16,-211.84 -5.45,-363 4.17,2.82 9.12,3.8 12.53,5.22 -0.5,46.23 3.56,87.89 8.4,130.93 7.8,64.82 14.47,132.39 3.56,222.9 -17.09,124.64 -3.2,190.91 7.67,248.36 5.25,29.18 10.51,55.13 11.57,84.73 1.03,42.55 -5.91,72.06 -13.95,88.16 -2.3,5.52 -5.73,10.57 -8.03,12.86 -2.66,-0.04 -4.95,2.25 -6.09,1.78 0,0 0,0 0,0 -0.76,-1.4 1.53,-3.68 4.21,-10.12 5.75,-17.05 13.82,-42.85 8.99,-85.9 -2.22,-20.37 -8.62,-43.55 -14.63,-70.9 -15.8,-68.14 -38,-162.7 -23.61,-271.19 11.26,-78.48 1.19,-153.95 -9.24,-234.97 -5.58,-44.45 -11.17,-88.89 -12.93,-136.07 4.56,1.9 9.87,5.19 14.44,7.09zm-318.67 -507.42c-71.25,23.27 -105.31,95.49 -190.52,75.14 73.73,41.49 113.9,-35.74 198.04,-45 2.27,7.42 4.14,15.76 6.79,22.26 -26.65,2.94 -46.09,14.29 -65.92,26.56 -31.63,18.15 -64.42,35.83 -123.76,27.32 -84.46,-12.48 -114.62,14.94 -141.32,40.54 -12.98,11.88 -25.19,21.92 -41.94,26.83 -25.15,5.73 -46.82,-0.05 -61.26,-10.38 -4.93,-4.22 -9.87,-8.43 -12.52,-11.7 -2.66,-3.26 -4.17,-6.05 -4.55,-8.37 -1.13,-0.47 -1.13,-0.47 -1.13,-0.47 0.38,-0.93 4.56,1.9 9.87,5.19 12.93,7.54 33.83,18.4 56.32,2.92 10.3,-5.43 20.23,-16.42 31.3,-30.17 30.16,-33.88 70.64,-79.68 144.06,-69.63 52.12,9.8 88.34,-16.16 126.1,-42.55 20.21,-13.2 40.8,-27.3 65.18,-34.44 1.88,8.35 3.76,16.69 5.26,25.95zm77.02 223.22c-52.36,74.33 -63.68,175.47 -136.08,207.97 68.14,-2.96 84.04,-111.9 148.94,-181.01 3.04,5.58 6.81,12.56 9.84,18.14 -20.23,22.89 -33.24,47.72 -47.01,74.38 -21.06,40.93 -42.87,83.69 -92.43,112.74 -69.38,38.09 -87.41,87.82 -103.12,128.8 -7.68,21.65 -14.58,41.45 -27.18,55.64 -18.71,22.46 -37.38,28.72 -51.08,26.27 -4.94,-0.98 -9.5,-2.88 -13.3,-6.62 -2.28,-0.95 -3.79,-3.74 -5.69,-5.61 0,0 0,0 0,0 0.39,-0.92 3.8,0.5 8.38,-0.83 12.93,1.06 30.82,-0.13 45.36,-28.64 6.9,-13.33 12.65,-30.38 19.18,-52.5 16.15,-54.83 38.05,-129.97 98.27,-162.14 43.46,-24.03 67.2,-74.63 91.32,-126.15 13.41,-28.98 26.8,-57.96 44.01,-83.21 3.77,6.98 6.8,15.8 10.59,22.77zm-107.97 -454.26c-82.51,-26.79 -136.67,10.07 -221.34,-59.74 66.76,80.71 129.29,43.02 222.03,87.02 0.74,7.87 1.48,15.73 1.83,24.53 -28.12,-16.03 -52.08,-19.53 -76.43,-22.1 -38.44,-4.12 -77.62,-9.63 -138.77,-55.6 -85.08,-62.42 -124.29,-58.23 -158.18,-53.97 -16.76,1.67 -31.22,4.29 -51.38,-1.95 -28.9,-7.71 -49.78,-25.04 -63.06,-41.37 -4.56,-5.13 -8.35,-12.11 -11.38,-17.69 -1.13,-3.71 -2.64,-6.5 -2.63,-9.74 0,0 0,0 0,0 0,0 3.42,4.66 7.96,9.79 13.29,13.1 33.03,33.19 59.67,33.48 12.93,1.07 26.26,-2.02 41.88,-7.4 39.99,-9.27 94.84,-22.09 167.39,31.87 52.78,40.33 97.3,42.66 143.35,44.56 25.5,3.05 50.61,3.79 77.99,11.94 -0.02,9.71 0.72,17.58 1.07,26.37zm6.97 92.53c-154.54,8.04 -310.24,18.84 -466.33,33.78 0,0 -8.38,0.83 -6.87,6.86 0.37,5.55 9.5,6.12 9.5,6.12 160.23,4.05 318.14,13.62 474.91,29.19 -1.5,-9.25 -3.38,-17.6 -4.11,-25.46 -72.3,-6.34 -144.98,-11.75 -218.42,-15.33 71.56,-4.76 143.51,-10.46 214.31,-13.39 -1.13,-6.94 -1.86,-14.81 -2.99,-21.77zm143.78 442.18c-73.63,196.16 -147.25,392.32 -220.12,589.88 0,0 -3.83,9.2 -1.56,13.39 3.41,4.66 7.25,-4.55 7.25,-4.55 83.47,-181.26 166.96,-362.51 251.19,-542.38 -4.17,-6.04 -8.72,-11.19 -12.51,-18.16 -39.05,84.19 -77.35,166.53 -115.65,252.11 34.13,-91.64 67.5,-181.43 102.39,-271.67 -4.18,-6.06 -6.82,-12.56 -10.99,-18.62zm-93.05 -207.21c-120.55,103.18 -242.26,209.12 -364.76,320.14 0,0 0,0 0,0 0,0 -7.24,4.55 -4.59,11.04 1.51,6.04 9.13,0.57 9.13,0.57 130.04,-90.6 258.17,-176.58 385.91,-261.65 -3.41,-7.9 -5.67,-15.33 -8.69,-24.15 -59.49,40.05 -118.97,80.08 -177.32,120.6 55.33,-49.34 111.41,-97.26 167.49,-145.2 -2.26,-7.42 -4.91,-13.93 -7.17,-21.35zm345.91 429.11c48.34,272.85 99.73,538.33 152.66,803.37 0,0 3,15.29 6.05,14.39 3.8,0.51 1.94,-14.3 1.94,-14.3 -41.13,-264.45 -81.49,-530.74 -119.18,-800.23 -4.56,1.34 -8.37,0.84 -13.7,0.78 17.16,125.94 35.07,250.04 54.53,373.7 -24.4,-124.64 -48.03,-247.88 -70.13,-374.8 -3.8,-0.51 -7.61,-1.01 -12.17,-2.91zm-131.11 -70.78c-15.18,258.29 -30.37,516.58 -43.64,770.26 0,0 -0.8,14.79 2.62,16.21 4.17,2.82 4.6,-11.05 4.6,-11.05 0,0 0,0 0,0 24.66,-245.7 50.86,-495.08 77.82,-743.06 -4.18,-2.81 -8.36,-5.64 -13.3,-9.86 -13.26,115.45 -25.39,231.36 -36.74,345.44 6.42,-118.29 13.22,-237.5 21.17,-356.23 -4.18,-2.82 -8.74,-7.96 -12.53,-11.71zm-267.57 -813.39c-163.79,-91.93 -329.11,-176.96 -498.27,-252.76 0,0 -9.5,-6.12 -9.9,1.27 -0.39,4.16 9.1,10.28 9.1,10.28 0,0 0,0 0,0 168.35,93.83 332.1,198.71 493.55,309.12 0.4,-7.39 0.8,-14.79 0.82,-21.27 -74.45,-52.59 -150.05,-102.41 -223.75,-153.61 74.87,41.96 150.86,84.4 226.11,128.67 0.39,-7.39 0.79,-14.79 2.34,-21.7zm19.68 -98.73c-26.95,-25.26 -53.16,-42.65 -78.99,-60.96 -46.72,-32.41 -91.55,-62.94 -137.04,-127.24 -63.69,-88.08 -123.78,-107.69 -167.88,-123.89 -17.5,-6.2 -31.94,-10.06 -44.48,-18.52 -27.74,-16.94 -42.88,-44.84 -52.73,-62.99 -3.79,-6.97 -5.68,-12.08 -6.06,-11.15 0,0 0,0 0,0 -0.39,0.91 -0.39,4.16 0.36,8.78 1.5,6.03 3.77,13.45 7.17,21.34 9.46,19.06 27.27,47 53.85,69.95 18.22,17.3 35.33,24.42 52.44,31.54 37.24,16.59 79.06,35.07 153.38,136.22 51.55,75.45 91.43,105.01 130.17,134.1 24.3,18.76 49,36.6 75.55,66.01 0.02,-6.48 1.57,-13.39 3.11,-20.31 -86.13,-95.25 -158.43,-104.82 -209.88,-212.65 72,109.9 135.55,114.75 215.65,189.13 1.16,-6 2.7,-12.92 5.38,-19.36zm29.91 -78.27c-146.4,-181.91 -297.4,-352.77 -451.1,-513.94 0,0 -8.73,-7.95 -9.88,-5.19 -1.92,4.59 6.43,13.47 6.43,13.47 147.95,174.99 292.82,360.58 433.47,556.29 1.17,-6 3.47,-11.52 5.76,-17.04 -65.2,-90.87 -129.66,-180.34 -194.88,-267.97 67.9,81.19 135.04,164.21 202.93,248.63 2.3,-5.52 4.22,-10.12 7.27,-14.25zm44.73 -68.87c-21.59,-38.14 -44.34,-70.29 -66.72,-100.12 -40.56,-56.85 -79.23,-111.83 -109.83,-192.61 -42.69,-112.81 -98.49,-165.2 -139.49,-204.94 -16.7,-14.52 -29.99,-27.61 -40.99,-39.75 -23.89,-32.62 -31.03,-63.67 -37.07,-84.55 -1.87,-8.34 -2.24,-13.89 -2.62,-12.97 0,0 0,0 0,0 -1.53,0.45 -1.54,3.68 -1.93,7.84 -0.77,5.07 -0.04,12.94 1.84,21.28 4.13,22.25 14.69,54.72 35.91,90.55 14.01,24.2 28.81,40.07 45.9,56.9 32.24,35.03 70.57,74.74 120.83,204.75 35.9,93.79 68.87,143.15 101.85,192.51 20.46,31.2 41.31,61.48 61.36,103.31 3.45,-5.05 5.36,-9.64 8.41,-13.78 -65.46,-135.25 -138,-189.2 -164.31,-309.24 46.44,135.98 112.15,180.61 176.16,293.66 3.44,-5.06 6.5,-9.18 10.7,-12.84zm172.97 -68.39c-49.47,-273.32 -100.1,-540.64 -152.27,-804.28 0,0 -3.38,-14.38 -6.05,-14.4 -3.81,-0.51 -1.94,14.31 -1.94,14.31 39.99,263.97 79.96,531.18 119.17,800.23 4.19,-0.43 8.37,-0.84 13.33,0.14 -18.3,-126.42 -36.6,-249.6 -54.53,-373.7 23.25,124.16 46.89,247.39 69.74,375.71 3.81,0.51 8.38,-0.84 12.55,1.99zm68.83 24.32c-2.16,-46.25 -7.74,-90.7 -13.33,-135.15 -10.43,-81.02 -20.11,-157.41 -9.24,-234.96 14.39,-108.5 -7.8,-203.06 -23.59,-271.19 -6.02,-27.34 -12.03,-51.46 -14.27,-71.82 -5.21,-42.14 2.86,-67.94 8.62,-84.97 2.68,-6.45 5.35,-9.66 4.6,-11.05 -0.39,0.92 -0.39,0.92 -0.39,0.92 -1.14,-0.48 -3.05,0.88 -5.72,0.86 -2.67,3.21 -6.11,8.25 -8.41,13.77 -8.41,17.02 -14.58,44.7 -13.95,88.16 1.07,29.6 6.32,55.55 11.57,84.73 11.26,56.53 24.78,123.72 7.67,248.36 -11.29,91.43 -3.86,157.17 3.95,221.98 4.45,43.97 8.52,85.63 8.01,131.85 3.81,0.51 7.99,3.32 12.93,4.31 2.32,-150.25 -36.93,-271.34 -5.46,-363.01 -20.14,125.54 16.1,231.35 22.56,370.13 4.56,1.9 9.89,5.18 14.45,7.08zm-226.54 26.67c3.43,-1.81 6.87,-6.86 10.69,-9.58 -45.35,-116.09 -90.7,-232.17 -135.29,-346.85 48.41,111.95 98.33,223.46 147.88,335.88 3.81,-2.73 7.24,-4.54 11.06,-7.28 -106.66,-242.04 -215.23,-479.48 -328.4,-705.87 0,0 0,0 0,0 0,0 -6.81,-12.55 -9.1,-10.27 -2.67,3.21 3.01,15.29 3.01,15.29 103.24,234.15 202.28,478.41 300.15,728.68zm55.3 -39.62c4.58,-1.34 8.01,-3.15 12.2,-3.57 -34.97,-153.88 -96.76,-246.55 -93.39,-360.71 14.07,139.78 70.18,220.37 109,355.33 4.19,-0.41 9.14,-2.67 13.72,-4 -13.2,-45.46 -28.31,-86.31 -43.81,-126.24 -27.58,-71.97 -55.54,-143.01 -65.2,-229.11 -14.5,-122.67 -56.14,-202.65 -87.56,-262.17 -12.12,-22.33 -21.97,-40.46 -29.53,-57.66 -17.01,-39.48 -16.17,-70.45 -15.34,-91.71 0.4,-7.39 0.79,-11.55 0.03,-12.94 0,0 0,0 0,0 -1.52,0.44 -2.29,2.29 -3.83,5.97 -1.91,4.6 -3.07,10.6 -3.85,18.91 -2.35,21.7 0.23,54.1 12.29,95.84 7.91,29.22 18.89,51.06 31.76,74.78 22.69,51.57 50.31,110.59 68.57,249.96 11.9,99.99 34.56,164.5 56.85,223.46 14.35,39.46 27.57,78.44 38.09,123.86z"/>
    <path class="fil3" d="M17100.67 8661.53c-27.66,-42.84 -37.94,-43.88 -57.72,-47.79 -19.4,-4.84 -24.31,-18.75 -28.11,-19.26 -3.8,-0.5 -4.98,11.96 -0.05,16.18 6.46,3.77 17.1,10.36 36.88,14.27 19.02,5.76 32.28,25.32 45.17,45.8 39.41,59.61 42.24,139.63 47.55,142.92 6.08,4.69 0.62,-85.06 -43.72,-152.12 0,0 0,0 0,0z"/>
    <path class="fil3" d="M17171.45 8800.07c-24.36,-137.58 -83.43,-243.17 -137.46,-251.62 -15.99,3.06 -27.81,12.18 -37.74,26.41 -18.74,28.93 -26.48,76.46 -23.25,145.85 -2.27,-4.19 -7.21,-8.41 -11.39,-7.99 2.1,-72.57 15.2,-129.75 39.66,-166.01 6.88,-10.1 14.14,-17.88 22.14,-24.26 71.12,18.8 138.6,113.86 148.04,277.62 0,0 0,0 0,0z"/>
    <path id="loweyecontour" class="fil4" d="M17089.6 8675.28c-19.72,-29.8 -43.27,-47.17 -63.84,-39.54 10.1,62.54 57.46,138.41 103.85,155.56 -4.82,-43.05 -20.31,-86.22 -40.01,-116.02 0,0 0,0 0,0zm6.3 58.79c4.02,-9.67 4.25,-23.08 1.24,-35.13 12.88,23.72 20.79,52.93 18.08,65.85 -12.94,-1.07 -25.85,-8.61 -37.61,-22.14 7.6,4.24 14.26,1.08 18.29,-8.58zm-23.02 -70.07c-6.84,-2.85 -12.19,0.33 -16.02,9.54 -3.83,9.2 -4.25,26.3 0.65,40.23 -10.6,-19.54 -18.91,-41.36 -22.66,-64.52 12.58,-4.49 25.88,2.13 38.03,14.75z"/>
    <path class="fil3" d="M17126.13 8809.29c-54.37,-17.24 -89.98,-76.34 -104.3,-128.74 -14.32,-52.4 -12.02,-57.92 -7.09,-50.47 4.17,6.05 5.65,18.55 18.87,57.53 11.68,39.43 37.84,79.48 91.77,120.28 0,0 0,0 0.75,1.4z"/>
    <path class="fil3" d="M16890.75 8600.07c-9.86,-11.67 -21.68,-9.02 -27.04,3.86 -6.52,15.65 -2.02,40.21 8.59,56.51 6.46,10.23 14.05,14.47 21.29,13.17 3.75,19.92 13.98,37.14 20.05,45.06 0.75,1.4 1.51,2.8 2.26,4.19 4.93,7.45 16.3,21.91 27.71,26.66 -0.03,12.94 3.73,26.39 10.56,35.71 10.61,16.3 24.69,17.84 31.21,2.19 5.36,-12.89 3.51,-34.17 -4.44,-50.45 3.79,10.22 4.13,22.25 0.68,30.53 -4.21,10.13 -12.96,8.64 -20.16,-3 -6.82,-9.32 -9.45,-25.53 -5.98,-37.05 -4.2,3.65 -20.58,7.63 -37.26,-16.59 -16.3,-25.14 -17.35,-57.98 -16.95,-65.37 -4.97,8.73 -13.72,7.24 -20.15,-3 -7.59,-10.71 -9.83,-27.84 -5.61,-37.97 3.44,-8.28 9.54,-10.06 15.24,-4.45 0,0 0,0 0,0z"/>
    <path class="fil3" d="M16879.39 8714.14c-22.36,-33.07 -42.57,-19.88 -69.56,-32.19 13.66,12.16 26.99,12.31 47.51,24.1 19.76,10.38 26.51,45.59 35.23,60.01 0,0 0,0 0,0 9.09,13.52 28.48,18.35 39.05,54.06 9.79,34.32 13.91,59.8 22.99,83.01 -12.43,-47.29 -10.04,-88.41 -32.02,-122.4 -3.78,-6.98 -14.41,-16.8 -25.81,-24.78 0,0 0,0 0,0 -6.8,-19.04 -13.22,-35.75 -17.39,-41.81z"/>
    <path class="fil3" d="M16817.78 8694.98c0,0 0,0 0,0 42.12,46.69 43.94,77.69 60.99,104.23 0,0 0,0 0,0 17.44,25.61 33.81,21.63 66.74,90.42 -37.52,-57.75 -41.09,-7.39 -77.09,-62.33 -0.76,-1.4 -0.76,-1.4 -0.76,-1.4 -36.76,-56.35 -11.22,-72.71 -49.88,-130.92 0,0 0,0 0,0zm-0.75 -1.4c-2.27,-4.19 -4.92,-7.45 -7.58,-10.72 43.17,76.3 5.86,79.13 54,153.16 0,0 0,0 0.76,1.4 47.36,72.64 41.86,2.31 90.01,66.63 -3.03,-5.58 -5.3,-9.76 -7.96,-13.03 -35.17,-82.68 -49.24,-84.22 -62.51,-103.78 0,0 0,0 0,0 -7.95,-13.03 -12.48,-27.88 -27.27,-47 -8.72,-14.42 -20.48,-27.96 -39.45,-46.66z"/>
    <path class="fil3" d="M16880.24 8953.19c13.03,-31.31 5.18,-83.17 -16.03,-115.77 -22.37,-33.07 -50.53,-36.15 -63.17,-5.78 15.27,-17.39 39.61,-11.58 58.19,17.75 18.18,27.01 26.82,70.57 21.01,103.8 0,0 0,0 0,0 0,0 0,0 0,0z"/>
    <path id="eyebrow_nose" class="fil3" d="M16816.73 8257.13c75.32,15.15 142.81,103.73 158.15,201.91 2.58,29.16 0.22,54.1 -4.79,75.77 -9.63,42.44 -33.3,67.14 -69.09,76 2.26,4.18 5.67,12.08 6.41,19.95 36.6,-20.41 62.96,-58.03 76.05,-111.99 3.46,-14.75 5.79,-29.98 6.98,-45.69 -24.39,-127.87 -88.41,-234.45 -173.71,-215.95 0,0 0,0 0,0z"/>
    <path id="uppalpebra" class="fil3" d="M16902.84 8358.85c27.67,42.84 30.66,61.37 37.78,98.9 7.14,34.28 14.73,41.76 15.1,47.32 1.11,6.94 -4.99,11.96 -8.01,3.15 -2.26,-10.66 -9.04,-29.69 -15.8,-64.9 -6.76,-35.22 -19.63,-55.7 -32.91,-75.27 -39.02,-60.52 -80.17,-48.49 -83.18,-57.3 -3.79,-10.21 42.68,-18.96 87.02,48.1 0,0 0,0 0,0z"/>
    <path class="fil4" d="M16892.89 8376.31c-19.71,-29.8 -42.11,-46.69 -63.44,-40.45 10.48,61.61 57.46,138.4 104.23,154.63 -5.6,-41.2 -21.08,-84.37 -40.79,-114.18 0,0 0,0 0,0zm9.73 63.45c3.64,-8.74 4.62,-20.76 1.99,-33.73 10.59,22.77 16.61,46.88 14.68,57.96 -10.66,-0.12 -22.06,-4.86 -32.3,-15.62 6.84,2.85 11.99,0.13 15.63,-8.61zm-21.51 -70.51c-6.84,-2.85 -13.31,-0.15 -17.53,9.98 -4.22,10.13 -3.5,27.7 1.41,41.63 -11.74,-20.01 -21.19,-45.54 -26.83,-70.57 15.62,-5.38 30.44,4.03 42.95,18.96z"/>
    <path id="lowpalpebra" class="fil3" d="M16822.56 8345.96c20.29,95.92 58.2,149.51 87.85,165.09 29.64,15.57 32.32,9.13 28.53,2.16 -4.92,-7.46 -11.77,-7.07 -34.56,-23.03 -22.8,-12.73 -48.96,-52.78 -81.82,-144.22 0,0 0,0 0,0z"/>
   </g>
   <path id="_156954400" class="fil5" d="M5882.44 19143.48l-327.66 -136.48 6879.38 -16516.73c-21.93,-52.1 -24.24,-110.67 -1.78,-164.61 15.96,-38.33 42.42,-69.39 75.17,-91.76 1.83,-17.2 6.09,-34.35 13.02,-50.96 13.91,-33.43 36.8,-60.65 65.13,-80.47 2.03,-11.32 5.29,-22.56 9.86,-33.55 15.89,-38.16 45.01,-67.15 80.72,-84.67 1.54,-10.24 4.32,-20.47 8.45,-30.4 29.68,-71.2 116.73,-102.69 194.42,-70.34 77.72,32.38 116.67,116.36 87.02,187.56 -4.14,9.92 -9.37,19.11 -15.55,27.42 12.7,37.7 12.57,78.78 -3.33,116.96 -4.57,10.97 -10.24,21.19 -16.84,30.59 5.89,34.09 2.68,69.5 -11.26,102.93 -6.91,16.61 -16.08,31.71 -26.99,45.12 7.19,39.03 3.79,79.67 -12.16,118.01 -22.48,53.95 -65.72,93.58 -118.19,114.71l-6879.41 16516.67z"/>
  </g>
 </g>
</svg>
